<?xml version="1.0" standalone="no"?><!DOCTYPE svg PUBLIC "-//W3C//DTD SVG 1.1//EN" "http://www.w3.org/Graphics/SVG/1.1/DTD/svg11.dtd"><svg t="1732450029767" class="icon" viewBox="0 0 1024 1024" version="1.1" xmlns="http://www.w3.org/2000/svg" p-id="6024" xmlns:xlink="http://www.w3.org/1999/xlink" width="200" height="200"><path d="M853.333333 128a42.666667 42.666667 0 0 1 42.666667 42.666667v74.965333l-85.333333 85.333333V213.333333H213.333333v345.6l170.666667-170.666666 184.661333 184.704-60.373333 60.288L384 509.013333l-170.666667 170.624V810.666667h479.616l56.704-56.704L806.4 810.666667h4.266667v-117.674667l85.333333-85.333333V853.333333a42.666667 42.666667 0 0 1-42.666667 42.666667H170.666667c-23.466667 0-42.666667-19.2-42.666667-42.666667V170.666667a42.666667 42.666667 0 0 1 42.666667-42.666667h682.666666z m75.861334 205.141333l60.330666 60.330667L657.664 725.333333l-60.416-0.085333 0.085333-60.245333 331.861334-331.861334zM661.333333 298.666667a64 64 0 1 1-0.042666 128.042666A64 64 0 0 1 661.333333 298.666667z" p-id="6025"></path></svg>