<svg t="1731509731687" class="icon" viewBox="0 0 1024 1024" version="1.1" xmlns="http://www.w3.org/2000/svg" p-id="5465" width="200" height="200"><path d="M672 352h160a32 32 0 0 1 0 64H640a32 32 0 0 1-32-32V192a32 32 0 0 1 64 0z" p-id="5466"></path><path d="M662.72 406.72a32 32 0 0 1-45.44-45.44l224-224a32 32 0 1 1 45.44 45.44zM352 352V192a32 32 0 0 1 64 0v192a32 32 0 0 1-32 32H192a32 32 0 0 1 0-64z" p-id="5467"></path><path d="M406.72 361.28a32 32 0 0 1-45.44 45.44l-224-224a32 32 0 0 1 45.44-45.44zM672 672v160a32 32 0 0 1-64 0V640a32 32 0 0 1 32-32h192a32 32 0 0 1 0 64z" p-id="5468"></path><path d="M617.28 662.72a32 32 0 0 1 45.44-45.44l224 224a32 32 0 0 1-45.44 45.44zM192 672a32 32 0 0 1 0-64h192a32 32 0 0 1 32 32v192a32 32 0 0 1-64 0V672z" p-id="5469"></path><path d="M361.28 617.28a32 32 0 0 1 45.44 45.44l-224 224a32 32 0 0 1-45.44-45.44z" p-id="5470"></path></svg>